{
	"asset":{
		"generator":"Khronos glTF Blender I/O v4.4.55",
		"version":"2.0"
	},
	"scene":0,
	"scenes":[
		{
			"name":"Scene",
			"nodes":[
				0
			]
		}
	],
	"nodes":[
		{
			"mesh":0,
			"name":"Sphere.001"
		}
	],
	"materials":[
		{
			"doubleSided":true,
			"name":"Material.002",
			"pbrMetallicRoughness":{
				"baseColorFactor":[
					0.9926010966300964,
					1,
					1,
					1
				],
				"metallicFactor":0,
				"roughnessFactor":0.5
			}
		}
	],
	"meshes":[
		{
			"name":"Sphere.001",
			"primitives":[
				{
					"attributes":{
						"POSITION":0,
						"NORMAL":1,
						"TEXCOORD_0":2
					},
					"indices":3,
					"material":0
				}
			]
		}
	],
	"accessors":[
		{
			"bufferView":0,
			"componentType":5126,
			"count":2000,
			"max":[
				0.9999997019767761,
				1,
				0.9999993443489075
			],
			"min":[
				-0.9999990463256836,
				-1,
				-1
			],
			"type":"VEC3"
		},
		{
			"bufferView":1,
			"componentType":5126,
			"count":2000,
			"type":"VEC3"
		},
		{
			"bufferView":2,
			"componentType":5126,
			"count":2000,
			"type":"VEC2"
		},
		{
			"bufferView":3,
			"componentType":5123,
			"count":2880,
			"type":"SCALAR"
		}
	],
	"bufferViews":[
		{
			"buffer":0,
			"byteLength":24000,
			"byteOffset":0,
			"target":34962
		},
		{
			"buffer":0,
			"byteLength":24000,
			"byteOffset":24000,
			"target":34962
		},
		{
			"buffer":0,
			"byteLength":16000,
			"byteOffset":48000,
			"target":34962
		},
		{
			"buffer":0,
			"byteLength":5760,
			"byteOffset":64000,
			"target":34963
		}
	],
	"buffers":[
		{
			"byteLength":69760,
			"uri":"ball.bin"
		}
	]
}
